<svg width="83" height="95" viewBox="0 0 83 95" fill="none" xmlns="http://www.w3.org/2000/svg">
<path d="M83 47.5085C83 41.9855 76.1143 36.7513 65.5575 33.5055C67.9937 22.6974 66.9109 14.0985 62.14 11.3455C61.0404 10.6997 59.7546 10.3938 58.3504 10.3938V14.1835C59.1286 14.1835 59.7546 14.3364 60.279 14.6253C62.5799 15.9508 63.5781 20.998 62.7998 27.4897C62.6137 29.0871 62.3092 30.7695 61.937 32.4859C58.6211 31.6702 55.0006 31.0414 51.194 30.6335C48.9101 27.4897 46.5416 24.6347 44.1561 22.1366C49.6714 16.9875 54.8484 14.1665 58.3673 14.1665V10.3768C53.7148 10.3768 47.6243 13.7076 41.4662 19.4856C35.308 13.7416 29.2175 10.4448 24.565 10.4448V14.2344C28.0671 14.2344 33.2609 17.0384 38.7762 22.1536C36.4077 24.6517 34.0391 27.4897 31.789 30.6335C27.9656 31.0414 24.3451 31.6702 21.0292 32.5029C20.64 30.8035 20.3524 29.1551 20.1494 27.5746C19.3543 21.083 20.3355 16.0358 22.6194 14.6933C23.127 14.3874 23.7868 14.2514 24.565 14.2514V10.4618C23.1439 10.4618 21.8581 10.7677 20.7415 11.4135C15.9876 14.1665 14.9217 22.7484 17.3748 33.5225C6.85181 36.7853 0 42.0025 0 47.5085C0 53.0315 6.88565 58.2656 17.4425 61.5114C15.0063 72.3195 16.0891 80.9184 20.86 83.6715C21.9596 84.3172 23.2454 84.6231 24.6665 84.6231C29.319 84.6231 35.4095 81.2923 41.5677 75.5144C47.7258 81.2583 53.8163 84.5551 58.4688 84.5551C59.8899 84.5551 61.1757 84.2492 62.2923 83.6035C67.0463 80.8505 68.1121 72.2686 65.659 61.4944C76.1482 58.2486 83 53.0145 83 47.5085ZM60.9727 36.1735C60.3467 38.3658 59.5685 40.6259 58.6887 42.8861C57.9951 41.5266 57.2676 40.1671 56.4725 38.8076C55.6943 37.4481 54.8653 36.1226 54.0363 34.831C56.4387 35.1879 58.7564 35.6297 60.9727 36.1735ZM53.2242 54.272C51.9046 56.5662 50.5512 58.7414 49.147 60.7637C46.6262 60.9846 44.0715 61.1036 41.5 61.1036C38.9454 61.1036 36.3907 60.9846 33.8869 60.7807C32.4827 58.7584 31.1123 56.6002 29.7927 54.323C28.5069 52.0968 27.3396 49.8366 26.2737 47.5594C27.3227 45.2823 28.5069 43.0051 29.7758 40.7789C31.0954 38.4847 32.4488 36.3095 33.853 34.2872C36.3738 34.0663 38.9285 33.9473 41.5 33.9473C44.0546 33.9473 46.6093 34.0663 49.1131 34.2702C50.5173 36.2925 51.8877 38.4507 53.2073 40.7279C54.4931 42.9541 55.6604 45.2143 56.7263 47.4915C55.6604 49.7687 54.4931 52.0458 53.2242 54.272ZM58.6887 52.0628C59.6023 54.34 60.3806 56.6172 61.0234 58.8264C58.8072 59.3702 56.4725 59.829 54.0532 60.1859C54.8822 58.8774 55.7112 57.5349 56.4894 56.1584C57.2676 54.7988 57.9951 53.4223 58.6887 52.0628ZM41.5338 70.1953C39.9605 68.5639 38.3871 66.7455 36.8306 64.7573C38.3532 64.8252 39.9097 64.8762 41.4831 64.8762C43.0734 64.8762 44.6468 64.8422 46.1863 64.7573C44.6637 66.7455 43.0903 68.5639 41.5338 70.1953ZM28.9468 60.1859C26.5444 59.829 24.2267 59.3872 22.0104 58.8434C22.6364 56.6512 23.4146 54.391 24.2943 52.1308C24.988 53.4903 25.7155 54.8498 26.5106 56.2093C27.3057 57.5689 28.1178 58.8944 28.9468 60.1859ZM41.4492 24.8216C43.0226 26.453 44.596 28.2714 46.1525 30.2597C44.6298 30.1917 43.0734 30.1407 41.5 30.1407C39.9097 30.1407 38.3363 30.1747 36.7968 30.2597C38.3194 28.2714 39.8928 26.453 41.4492 24.8216ZM28.9299 34.831C28.1009 36.1396 27.2719 37.4821 26.4937 38.8586C25.7155 40.2181 24.988 41.5776 24.2943 42.9371C23.3808 40.6599 22.6025 38.3828 21.9596 36.1735C24.1759 35.6467 26.5106 35.1879 28.9299 34.831ZM13.619 56.1074C7.63005 53.5413 3.75581 50.1765 3.75581 47.5085C3.75581 44.8404 7.63005 41.4586 13.619 38.9096C15.074 38.2808 16.6643 37.72 18.3053 37.1932C19.2697 40.524 20.5385 43.9907 22.1119 47.5425C20.5554 51.0772 19.3035 54.5269 18.3561 57.8407C16.6812 57.3139 15.0909 56.7361 13.619 56.1074ZM22.721 80.3916C20.4201 79.0661 19.4219 74.0189 20.2002 67.5273C20.3863 65.9298 20.6908 64.2474 21.063 62.5311C24.3789 63.3468 27.9994 63.9755 31.806 64.3834C34.0899 67.5273 36.4584 70.3822 38.8439 72.8803C33.3286 78.0295 28.1517 80.8505 24.6327 80.8505C23.8714 80.8335 23.2285 80.6805 22.721 80.3916ZM62.8506 67.4423C63.6457 73.934 62.6645 78.9811 60.3806 80.3237C59.873 80.6296 59.2132 80.7655 58.435 80.7655C54.9329 80.7655 49.7391 77.9615 44.2238 72.8464C46.5923 70.3483 48.9609 67.5103 51.211 64.3664C55.0345 63.9586 58.6549 63.3298 61.9709 62.4971C62.36 64.2135 62.6645 65.8619 62.8506 67.4423ZM69.364 56.1074C67.9091 56.7361 66.3188 57.2969 64.6777 57.8238C63.7134 54.493 62.4446 51.0262 60.8712 47.4745C62.4276 43.9398 63.6796 40.49 64.627 37.1762C66.3019 37.703 67.8922 38.2808 69.381 38.9096C75.37 41.4756 79.2442 44.8404 79.2442 47.5085C79.2273 50.1765 75.353 53.5583 69.364 56.1074Z" fill="#0EA5E9"/>
<path d="M41.4831 55.2747C45.7531 55.2747 49.2146 51.7976 49.2146 47.5085C49.2146 43.2193 45.7531 39.7422 41.4831 39.7422C37.2131 39.7422 33.7515 43.2193 33.7515 47.5085C33.7515 51.7976 37.2131 55.2747 41.4831 55.2747Z" fill="#0EA5E9"/>
</svg>
